<svg width="16" height="11" viewBox="0 0 16 11" fill="none" xmlns="http://www.w3.org/2000/svg">
<path d="M0.666504 10.8333V8.96667C0.666504 8.5889 0.763837 8.24156 0.958504 7.92467C1.15317 7.60779 1.41139 7.36623 1.73317 7.20001C2.42206 6.85556 3.12206 6.59712 3.83317 6.42467C4.54428 6.25223 5.2665 6.16623 5.99984 6.16667C6.73317 6.16667 7.45539 6.2529 8.1665 6.42534C8.87761 6.59778 9.57761 6.85601 10.2665 7.20001C10.5887 7.36667 10.8472 7.60845 11.0418 7.92534C11.2365 8.24223 11.3336 8.58934 11.3332 8.96667V10.8333H0.666504ZM12.6665 10.8333V8.83334C12.6665 8.34445 12.5303 7.8749 12.2578 7.42467C11.9854 6.97445 11.5994 6.58845 11.0998 6.26667C11.6665 6.33334 12.1998 6.44734 12.6998 6.60867C13.1998 6.77001 13.6665 6.96712 14.0998 7.20001C14.4998 7.42223 14.8054 7.66934 15.0165 7.94134C15.2276 8.21334 15.3332 8.51067 15.3332 8.83334V10.8333H12.6665ZM5.99984 5.50001C5.2665 5.50001 4.63873 5.2389 4.1165 4.71667C3.59428 4.19445 3.33317 3.56667 3.33317 2.83334C3.33317 2.10001 3.59428 1.47223 4.1165 0.950007C4.63873 0.427785 5.2665 0.166674 5.99984 0.166674C6.73317 0.166674 7.36095 0.427785 7.88317 0.950007C8.40539 1.47223 8.6665 2.10001 8.6665 2.83334C8.6665 3.56667 8.40539 4.19445 7.88317 4.71667C7.36095 5.2389 6.73317 5.50001 5.99984 5.50001ZM12.6665 2.83334C12.6665 3.56667 12.4054 4.19445 11.8832 4.71667C11.3609 5.2389 10.7332 5.50001 9.99984 5.50001C9.87761 5.50001 9.72206 5.48601 9.53317 5.45801C9.34428 5.43001 9.18873 5.39956 9.0665 5.36667C9.3665 5.01112 9.59717 4.61667 9.7585 4.18334C9.91984 3.75001 10.0003 3.30001 9.99984 2.83334C9.99984 2.36667 9.91939 1.91667 9.7585 1.48334C9.59762 1.05001 9.36695 0.655562 9.0665 0.300007C9.22206 0.244451 9.37761 0.208229 9.53317 0.19134C9.68873 0.174451 9.84428 0.166229 9.99984 0.166674C10.7332 0.166674 11.3609 0.427785 11.8832 0.950007C12.4054 1.47223 12.6665 2.10001 12.6665 2.83334ZM1.99984 9.50001H9.99984V8.96667C9.99984 8.84445 9.96917 8.73334 9.90784 8.63334C9.8465 8.53334 9.76606 8.45556 9.6665 8.40001C9.0665 8.10001 8.46095 7.87512 7.84984 7.72534C7.23873 7.57556 6.62206 7.50045 5.99984 7.50001C5.37761 7.50001 4.76095 7.57512 4.14984 7.72534C3.53873 7.87556 2.93317 8.10045 2.33317 8.40001C2.23317 8.45556 2.1525 8.53334 2.09117 8.63334C2.02984 8.73334 1.99939 8.84445 1.99984 8.96667V9.50001ZM5.99984 4.16667C6.3665 4.16667 6.6805 4.03601 6.94184 3.77467C7.20317 3.51334 7.33362 3.19956 7.33317 2.83334C7.33317 2.46667 7.2025 2.15267 6.94117 1.89134C6.67984 1.63001 6.36606 1.49956 5.99984 1.50001C5.63317 1.50001 5.31917 1.63067 5.05784 1.89201C4.7965 2.15334 4.66606 2.46712 4.6665 2.83334C4.6665 3.20001 4.79717 3.51401 5.0585 3.77534C5.31984 4.03667 5.63362 4.16712 5.99984 4.16667Z" fill="#F8F9FC"/>
</svg>
