<svg width="14" height="15" viewBox="0 0 14 15" fill="none" xmlns="http://www.w3.org/2000/svg">
<path d="M7 11.307L3.462 7.76798L4.169 7.04898L6.5 9.37998V0.72998H7.5V9.37998L9.83 7.04998L10.538 7.76798L7 11.307ZM1.615 14.73C1.155 14.73 0.771 14.576 0.463 14.268C0.154333 13.9593 0 13.575 0 13.115V10.692H1V13.115C1 13.2683 1.064 13.4093 1.192 13.538C1.32067 13.666 1.46167 13.73 1.615 13.73H12.385C12.5383 13.73 12.6793 13.666 12.808 13.538C12.936 13.4093 13 13.2683 13 13.115V10.692H14V13.115C14 13.575 13.846 13.959 13.538 14.267C13.2293 14.5756 12.845 14.73 12.385 14.73H1.615Z" fill="#18203A"/>
</svg>
