<svg width="58" height="57" viewBox="0 0 58 57" fill="none" xmlns="http://www.w3.org/2000/svg">
<g id="Ebene 1">
<g id="Group">
<g id="Group_2">
<g id="Group_3">
<g id="Group_4">
<path id="Vector" d="M42.215 46.81L41.595 47.12L35.085 34.15L37.595 33.94L41.085 33.84L45.885 43.4L46.355 44.26" fill="#18203A"/>
</g>
</g>
<path id="Vector_2" d="M38.445 29.35H39.065L31.885 15.05L28.895 22.28L32.445 29.35H33.065H37.835H38.125H38.445Z" fill="#18203A"/>
<path id="Vector_3" d="M24.305 28.8L24.035 29.35L21.845 33.45L21.675 33.78L21.245 34.55H44.115L56.045 28.8H24.305Z" fill="#18203A"/>
<path id="Vector_4" d="M28.605 8.51001L11.015 42.82L11.395 43.27L14.695 46.36L15.565 47.09L28.595 21.67L29.545 23.58L32.535 16.35L28.605 8.51001Z" fill="#18203A"/>
<path id="Vector_5" d="M53.635 28.8V29.35L42.385 33.45H40.875V34.55H49.795C48.825 38.2 46.935 41.47 44.175 44.27C39.915 48.56 34.605 50.74 28.415 50.74C22.695 50.74 17.585 48.61 13.225 44.41C8.835 40.2 6.605 34.76 6.605 28.24C6.605 21.72 8.755 16.73 12.995 12.49C17.225 8.21 22.485 6.04 28.635 6.04C34.785 6.04 40.055 8.22 44.245 12.51C45.825 14.1 47.125 15.88 48.115 17.78L48.415 18.35L53.575 14.54L53.315 14.11C52.085 12.07 50.575 10.15 48.795 8.38C43.245 2.81 36.495 0 28.745 0C20.995 0 14.065 2.79 8.465 8.3C2.845 13.8 -0.00500488 20.47 -0.00500488 28.12C-0.00500488 36.97 3.025 43.92 9.265 49.38C14.865 54.25 21.275 56.72 28.305 56.72C36.265 56.72 43.145 53.94 48.775 48.46C54.145 43.23 56.965 36.8 57.185 29.36L57.205 28.79H53.645L53.635 28.8Z" fill="#18203A"/>
</g>
<g id="Group_5">
<path id="Vector_6" d="M27.295 42.51L26.645 42.44C26.905 40.13 28.265 38.39 28.325 38.32L28.575 38L28.825 38.32C28.885 38.39 30.205 40.09 30.495 42.35L29.855 42.43C29.665 40.93 28.965 39.67 28.575 39.08C28.185 39.68 27.465 40.98 27.285 42.51H27.295Z" fill="#18203A"/>
<g id="Group_6">
<path id="Vector_7" d="M34.0349 40L33.9949 39.59L33.6049 39.72C33.4949 39.76 30.9549 40.63 29.4949 42.86C29.0549 43.54 28.7649 44.26 28.5849 44.93C28.3949 44.25 28.1149 43.53 27.6749 42.86C26.2149 40.63 23.6749 39.75 23.5649 39.72L23.1749 39.59L23.1349 40C23.1349 40.05 23.0249 41.34 23.4249 42.87L24.0549 42.71C23.8149 41.81 23.7749 40.99 23.7749 40.51C24.5249 40.84 26.1349 41.69 27.1349 43.23C28.0849 44.69 28.2549 46.41 28.2649 47.28C28.2649 47.39 28.2649 47.5 28.2649 47.59C28.2649 47.75 28.2549 47.85 28.2549 47.85H28.2749C28.2749 47.85 28.2749 47.9 28.2749 47.91L28.5849 47.88L28.8949 47.91C28.8949 47.91 28.8949 47.88 28.8949 47.85H28.9149C28.9149 47.85 28.9149 47.75 28.9049 47.59C28.9049 47.5 28.9049 47.4 28.9049 47.28C28.9249 46.41 29.0849 44.69 30.0349 43.23C31.0349 41.7 32.6449 40.85 33.3949 40.51C33.3949 40.99 33.3449 41.81 33.1149 42.71L33.7449 42.87C34.1449 41.34 34.0349 40.05 34.0349 40Z" fill="#18203A"/>
<path id="Vector_8" d="M33.4049 40.51C33.4049 40.99 33.3549 41.81 33.1249 42.71L33.7549 42.87C34.1549 41.34 34.0449 40.05 34.0449 40L34.0049 39.59L33.6149 39.72" fill="#18203A"/>
<path id="Vector_9" d="M23.7649 40.51C23.7649 40.99 23.8149 41.81 24.0449 42.71L23.4149 42.87C23.0149 41.34 23.1249 40.05 23.1249 40L23.1649 39.59L23.5549 39.72" fill="#18203A"/>
</g>
<path id="Vector_10" d="M36.185 42.06C36.065 42.06 33.385 41.96 31.225 43.52C29.805 44.55 28.985 46.02 28.595 46.94C28.195 46.02 27.385 44.55 25.965 43.52C23.805 41.96 21.115 42.06 21.005 42.06L20.595 42.08L20.705 42.48C20.735 42.59 21.495 45.17 23.655 46.73C25.545 48.09 27.835 48.19 28.455 48.19C28.525 48.19 28.575 48.19 28.605 48.19C28.625 48.19 28.675 48.19 28.755 48.19C29.385 48.19 31.675 48.09 33.555 46.73C35.715 45.17 36.465 42.58 36.505 42.48L36.615 42.08L36.205 42.06H36.185ZM24.015 46.2C22.535 45.13 21.765 43.48 21.465 42.72C22.285 42.76 24.095 42.98 25.575 44.05C27.055 45.12 27.825 46.77 28.125 47.53C27.305 47.49 25.495 47.27 24.015 46.2ZM33.155 46.2C31.675 47.27 29.865 47.49 29.045 47.53C29.345 46.76 30.115 45.11 31.595 44.05C33.075 42.98 34.885 42.76 35.705 42.72C35.405 43.49 34.635 45.14 33.155 46.2Z" fill="#18203A"/>
</g>
</g>
</g>
</svg>
