<svg width="59" height="57" viewBox="0 0 59 57" fill="none" xmlns="http://www.w3.org/2000/svg">
<path d="M43.115 46.8098L42.495 47.1198L35.985 34.1498L38.495 33.9398L41.985 33.8398L46.785 43.3998L47.255 44.2598" fill="white"/>
<path d="M39.345 29.3498H39.965L32.785 15.0498L29.795 22.2798L33.345 29.3498H33.965H38.735H39.025H39.345Z" fill="white"/>
<path d="M25.205 28.7998L24.935 29.3498L22.745 33.4498L22.575 33.7798L22.145 34.5498H45.015L56.945 28.7998H25.205Z" fill="white"/>
<path d="M29.505 8.50977L11.915 42.8198L12.295 43.2698L15.595 46.3598L16.465 47.0898L29.495 21.6698L30.445 23.5798L33.435 16.3498L29.505 8.50977Z" fill="white"/>
<path d="M54.535 28.8V29.35L43.285 33.45H41.775V34.55H50.695C49.725 38.2 47.835 41.47 45.075 44.27C40.815 48.56 35.505 50.74 29.315 50.74C23.595 50.74 18.485 48.61 14.125 44.41C9.73502 40.2 7.50502 34.76 7.50502 28.24C7.50502 21.72 9.65502 16.73 13.895 12.49C18.125 8.21 23.385 6.04 29.535 6.04C35.685 6.04 40.955 8.22 45.145 12.51C46.725 14.1 48.025 15.88 49.015 17.78L49.315 18.35L54.475 14.54L54.215 14.11C52.985 12.07 51.475 10.15 49.695 8.38C44.145 2.81 37.395 0 29.645 0C21.895 0 14.965 2.79 9.36502 8.3C3.74502 13.8 0.89502 20.47 0.89502 28.12C0.89502 36.97 3.92502 43.92 10.165 49.38C15.765 54.25 22.175 56.72 29.205 56.72C37.165 56.72 44.045 53.94 49.675 48.46C55.045 43.23 57.865 36.8 58.085 29.36L58.105 28.79H54.545L54.535 28.8Z" fill="white"/>
<path d="M28.195 42.51L27.545 42.44C27.805 40.13 29.165 38.39 29.225 38.32L29.475 38L29.725 38.32C29.785 38.39 31.105 40.09 31.395 42.35L30.755 42.43C30.565 40.93 29.865 39.67 29.475 39.08C29.085 39.68 28.365 40.98 28.185 42.51H28.195Z" fill="white"/>
<path d="M34.935 39.9998L34.895 39.5898L34.505 39.7198C34.395 39.7598 31.855 40.6298 30.395 42.8598C29.955 43.5398 29.665 44.2598 29.485 44.9298C29.295 44.2498 29.015 43.5298 28.575 42.8598C27.115 40.6298 24.575 39.7498 24.465 39.7198L24.075 39.5898L24.035 39.9998C24.035 40.0498 23.925 41.3398 24.325 42.8698L24.955 42.7098C24.715 41.8098 24.675 40.9898 24.675 40.5098C25.425 40.8398 27.035 41.6898 28.035 43.2298C28.985 44.6898 29.155 46.4098 29.165 47.2798C29.165 47.3898 29.165 47.4998 29.165 47.5898C29.165 47.7498 29.155 47.8498 29.155 47.8498H29.175C29.175 47.8498 29.175 47.8998 29.175 47.9098L29.485 47.8798L29.795 47.9098C29.795 47.9098 29.795 47.8798 29.795 47.8498H29.815C29.815 47.8498 29.815 47.7498 29.805 47.5898C29.805 47.4998 29.805 47.3998 29.805 47.2798C29.825 46.4098 29.985 44.6898 30.935 43.2298C31.935 41.6998 33.545 40.8498 34.295 40.5098C34.295 40.9898 34.245 41.8098 34.015 42.7098L34.645 42.8698C35.045 41.3398 34.935 40.0498 34.935 39.9998Z" fill="white"/>
<path d="M34.3049 40.5098C34.3049 40.9898 34.2549 41.8098 34.0249 42.7098L34.6549 42.8698C35.0549 41.3398 34.9449 40.0498 34.9449 39.9998L34.9049 39.5898L34.5149 39.7198" fill="white"/>
<path d="M24.665 40.5098C24.665 40.9898 24.715 41.8098 24.945 42.7098L24.315 42.8698C23.915 41.3398 24.025 40.0498 24.025 39.9998L24.065 39.5898L24.455 39.7198" fill="white"/>
<path d="M37.085 42.0599C36.965 42.0599 34.285 41.9599 32.125 43.5199C30.705 44.5499 29.885 46.0199 29.495 46.9399C29.095 46.0199 28.285 44.5499 26.865 43.5199C24.705 41.9599 22.015 42.0599 21.905 42.0599L21.495 42.0799L21.605 42.4799C21.635 42.5899 22.395 45.1699 24.555 46.7299C26.445 48.0899 28.735 48.1899 29.355 48.1899C29.425 48.1899 29.475 48.1899 29.505 48.1899C29.525 48.1899 29.575 48.1899 29.655 48.1899C30.285 48.1899 32.575 48.0899 34.455 46.7299C36.615 45.1699 37.365 42.5799 37.405 42.4799L37.515 42.0799L37.105 42.0599H37.085ZM24.915 46.1999C23.435 45.1299 22.665 43.4799 22.365 42.7199C23.185 42.7599 24.995 42.9799 26.475 44.0499C27.955 45.1199 28.725 46.7699 29.025 47.5299C28.205 47.4899 26.395 47.2699 24.915 46.1999ZM34.055 46.1999C32.575 47.2699 30.765 47.4899 29.945 47.5299C30.245 46.7599 31.015 45.1099 32.495 44.0499C33.975 42.9799 35.785 42.7599 36.605 42.7199C36.305 43.4899 35.535 45.1399 34.055 46.1999Z" fill="white"/>
</svg>
