<svg width="19" height="19" viewBox="0 0 19 19" fill="none" xmlns="http://www.w3.org/2000/svg">
<path d="M13.8801 8.67041V5.67041H10.8801V3.67041H13.8801V0.67041H15.8801V3.67041H18.8801V5.67041H15.8801V8.67041H13.8801ZM17.8301 18.7204C15.6801 18.7204 13.5841 18.2454 11.5421 17.2954C9.50013 16.3454 7.69179 15.0787 6.11713 13.4954C4.54246 11.9121 3.27579 10.0994 2.31713 8.05741C1.35846 6.01541 0.879461 3.91974 0.880128 1.77041V1.24541C0.880128 1.06208 0.896794 0.887077 0.930128 0.72041H6.78013L7.70513 5.74541L4.85513 8.62041C5.55513 9.82041 6.43446 10.9454 7.49313 11.9954C8.55179 13.0454 9.71413 13.9537 10.9801 14.7204L13.8801 11.8204L18.8801 12.8204V18.6704C18.7135 18.6871 18.5385 18.6997 18.3551 18.7084C18.1718 18.7171 17.9968 18.7211 17.8301 18.7204Z" fill="white"/>
</svg>
