<svg width="24" height="25" viewBox="0 0 24 25" fill="none" xmlns="http://www.w3.org/2000/svg">
<path fill-rule="evenodd" clip-rule="evenodd" d="M17.4988 15.1023C17.1994 14.9533 15.7313 14.2353 15.458 14.1353C15.1847 14.0363 14.9858 13.9873 14.7858 14.2853C14.5869 14.5813 14.0151 15.2513 13.8413 15.4493C13.6665 15.6483 13.4926 15.6723 13.1942 15.5243C12.8958 15.3743 11.9332 15.0613 10.7927 14.0493C9.90544 13.2613 9.30557 12.2883 9.13173 11.9903C8.9579 11.6933 9.11264 11.5323 9.26236 11.3843C9.39701 11.2513 9.56079 11.0373 9.71051 10.8643C9.86022 10.6903 9.90946 10.5663 10.0089 10.3673C10.1094 10.1693 10.0592 9.99626 9.98382 9.84726C9.90946 9.69826 9.3126 8.23526 9.06341 7.64026C8.82125 7.06126 8.57507 7.14026 8.39219 7.13026C8.21736 7.12226 8.0184 7.12026 7.81945 7.12026C7.6205 7.12026 7.29695 7.19426 7.02364 7.49226C6.74932 7.78926 5.97863 8.50826 5.97863 9.97126C5.97863 11.4333 7.04775 12.8463 7.19747 13.0453C7.34719 13.2433 9.30255 16.2453 12.2979 17.5323C13.0113 17.8383 13.567 18.0213 14.0001 18.1573C14.7155 18.3843 15.3666 18.3523 15.8811 18.2753C16.4538 18.1903 17.6475 17.5563 17.8967 16.8623C18.1449 16.1683 18.1449 15.5733 18.0705 15.4493C17.9962 15.3253 17.7972 15.2513 17.4978 15.1023H17.4988ZM12.0507 22.5053H12.0467C10.2676 22.5056 8.52118 22.0296 6.99048 21.1273L6.62875 20.9133L2.86874 21.8953L3.87255 18.2473L3.63642 17.8733C2.64179 16.2976 2.11543 14.474 2.11814 12.6133C2.12015 7.16326 6.57549 2.72926 12.0547 2.72926C14.7074 2.72926 17.2014 3.75926 19.0764 5.62726C20.0012 6.54384 20.7342 7.63382 21.233 8.83415C21.7318 10.0345 21.9864 11.3213 21.9823 12.6203C21.9803 18.0703 17.5249 22.5053 12.0507 22.5053ZM20.5032 4.20826C19.3961 3.09918 18.0788 2.21979 16.6277 1.62106C15.1766 1.02232 13.6206 0.716139 12.0497 0.720256C5.46417 0.720256 0.102491 6.05526 0.100481 12.6123C0.0974296 14.699 0.647475 16.7496 1.69512 18.5573L0 24.7203L6.33434 23.0663C8.0866 24.0164 10.0502 24.5142 12.0457 24.5143H12.0507C18.6363 24.5143 23.9979 19.1793 23.9999 12.6213C24.0048 11.0585 23.6983 9.51036 23.0981 8.06629C22.4978 6.62222 21.6159 5.31093 20.5032 4.20826Z" fill="white"/>
</svg>
