<svg width="18" height="19" viewBox="0 0 18 19" fill="none" xmlns="http://www.w3.org/2000/svg">
<path d="M16.4054 17.0741C17.0995 16.38 17.1265 15.2788 16.4623 14.6146L3.86728 2.01959C3.20456 1.35688 2.10345 1.3809 1.40779 2.07655C0.712141 2.7722 0.686673 3.87188 1.35083 4.53604L13.9459 17.1311C14.6086 17.7938 15.7112 17.7683 16.4054 17.0741Z" fill="#F8F9FC"/>
<path d="M16.4052 1.92581C15.7111 1.23167 14.6099 1.20469 13.9457 1.86885L1.35068 14.4639C0.687961 15.1266 0.711986 16.2277 1.40764 16.9234C2.10329 17.619 3.20296 17.6445 3.86712 16.9803L16.4622 4.3853C17.1249 3.72258 17.0993 2.61995 16.4052 1.92581Z" fill="#F8F9FC"/>
</svg>
