<svg width="13" height="13" viewBox="0 0 13 13" fill="none" xmlns="http://www.w3.org/2000/svg">
<path d="M6.43018 0.328125C2.99268 0.328125 0.180176 3.13438 0.180176 6.59063C0.180176 9.71563 2.46768 12.3094 5.45518 12.7781V8.40312H3.86768V6.59063H5.45518V5.20938C5.45518 3.64063 6.38643 2.77813 7.81768 2.77813C8.49893 2.77813 9.21143 2.89688 9.21143 2.89688V4.44063H8.42393C7.64893 4.44063 7.40518 4.92188 7.40518 5.41563V6.59063H9.14268L8.86143 8.40312H7.40518V12.7781C8.87795 12.5455 10.2191 11.7941 11.1864 10.6594C12.1537 9.52475 12.6835 8.08165 12.6802 6.59063C12.6802 3.13438 9.86768 0.328125 6.43018 0.328125Z" fill="white"/>
</svg>
