<svg width="16" height="16" viewBox="0 0 16 16" fill="none" xmlns="http://www.w3.org/2000/svg">
<g clip-path="url(#clip0_626_1535)">
<path d="M11.5552 1.30322H5.30518C3.57929 1.30322 2.18018 2.70233 2.18018 4.42822V10.6782C2.18018 12.4041 3.57929 13.8032 5.30518 13.8032H11.5552C13.2811 13.8032 14.6802 12.4041 14.6802 10.6782V4.42822C14.6802 2.70233 13.2811 1.30322 11.5552 1.30322Z" stroke="white" stroke-linecap="round" stroke-linejoin="round"/>
<path d="M11.8677 4.11572H11.874M10.9302 7.15947C11.0074 7.67963 10.9185 8.21086 10.6763 8.67761C10.4341 9.14436 10.051 9.52286 9.58125 9.75927C9.11155 9.99568 8.57927 10.078 8.0601 9.99443C7.54094 9.91089 7.06134 9.66577 6.68951 9.29395C6.31769 8.92212 6.07257 8.44252 5.98903 7.92336C5.90549 7.40419 5.98778 6.87191 6.22419 6.40221C6.4606 5.93251 6.8391 5.54931 7.30585 5.30712C7.7726 5.06494 8.30383 4.97609 8.82399 5.05322C9.35456 5.1319 9.84577 5.37914 10.225 5.75841C10.6043 6.13769 10.8516 6.6289 10.9302 7.15947Z" stroke="white" stroke-linecap="round" stroke-linejoin="round"/>
</g>
<defs>
<clipPath id="clip0_626_1535">
<rect width="15" height="15" fill="white" transform="translate(0.930176 0.0532227)"/>
</clipPath>
</defs>
</svg>
