<svg width="12" height="13" viewBox="0 0 12 13" fill="none" xmlns="http://www.w3.org/2000/svg">
<path fill-rule="evenodd" clip-rule="evenodd" d="M12 5.5C12 8.26133 9.76133 10.5 7 10.5C5.8028 10.5017 4.64502 10.0722 3.73867 9.29L3.29 9.73867L3.23733 10.2053L0.942667 12.5L0 11.5573L2.309 9.24833L2.87733 9.20833L3.26333 8.82233C2.448 7.90792 1.99823 6.72512 2 5.5C2 2.73867 4.23867 0.5 7 0.5C9.76133 0.5 12 2.73867 12 5.5ZM11.3333 5.5C11.3333 7.89333 9.39333 9.83333 7 9.83333C4.60667 9.83333 2.66667 7.89333 2.66667 5.5C2.66667 3.10667 4.60667 1.16667 7 1.16667C9.39333 1.16667 11.3333 3.10667 11.3333 5.5Z" fill="#F8F9FC"/>
</svg>
