<svg width="16" height="17" viewBox="0 0 16 17" fill="none" xmlns="http://www.w3.org/2000/svg">
<path d="M9.16677 7.16666C9.16677 7.44266 9.39077 7.66666 9.66677 7.66666H10.1268L8.78477 9.00866C8.76929 9.02418 8.7509 9.0365 8.73065 9.0449C8.7104 9.0533 8.68869 9.05763 8.66677 9.05763C8.64485 9.05763 8.62314 9.0533 8.60289 9.0449C8.58264 9.0365 8.56425 9.02418 8.54877 9.00866L7.49144 7.95133C7.27267 7.73272 6.97605 7.60991 6.66677 7.60991C6.35749 7.60991 6.06087 7.73272 5.8421 7.95133L4.31344 9.48C4.26431 9.52577 4.22491 9.58097 4.19758 9.64231C4.17025 9.70364 4.15556 9.76985 4.15437 9.83698C4.15319 9.90412 4.16554 9.9708 4.19069 10.0331C4.21583 10.0953 4.25326 10.1519 4.30074 10.1994C4.34822 10.2468 4.40478 10.2843 4.46704 10.3094C4.5293 10.3346 4.59598 10.3469 4.66312 10.3457C4.73025 10.3445 4.79646 10.3298 4.85779 10.3025C4.91913 10.2752 4.97433 10.2358 5.0201 10.1867L6.54877 8.658C6.56425 8.64248 6.58264 8.63016 6.60289 8.62176C6.62314 8.61336 6.64485 8.60903 6.66677 8.60903C6.68869 8.60903 6.7104 8.61336 6.73065 8.62176C6.7509 8.63016 6.76929 8.64248 6.78477 8.658L7.8421 9.71533C8.06087 9.93395 8.35749 10.0567 8.66677 10.0567C8.97605 10.0567 9.27267 9.93395 9.49144 9.71533L10.8334 8.374V8.83333C10.8334 8.96594 10.8861 9.09312 10.9799 9.18688C11.0736 9.28065 11.2008 9.33333 11.3334 9.33333C11.466 9.33333 11.5932 9.28065 11.687 9.18688C11.7808 9.09312 11.8334 8.96594 11.8334 8.83333V7.16666C11.8334 7.03406 11.7808 6.90688 11.687 6.81311C11.5932 6.71934 11.466 6.66666 11.3334 6.66666H9.66677C9.53416 6.66666 9.40698 6.71934 9.31322 6.81311C9.21945 6.90688 9.16677 7.03406 9.16677 7.16666Z" fill="#F8F9FC"/>
<path fill-rule="evenodd" clip-rule="evenodd" d="M7.96216 1.33333C6.42283 1.33333 5.21683 1.33333 4.2755 1.45999C3.31283 1.58933 2.55283 1.85999 1.95616 2.45599C1.3595 3.05266 1.0895 3.81266 0.960163 4.77599C0.833496 5.71666 0.833496 6.92266 0.833496 8.46199V8.53799C0.833496 10.0773 0.833496 11.2833 0.960163 12.2247C1.0895 13.1873 1.36016 13.9473 1.95616 14.544C2.55283 15.1407 3.31283 15.4107 4.27616 15.54C5.21683 15.6667 6.42283 15.6667 7.96216 15.6667H8.03816C9.5775 15.6667 10.7835 15.6667 11.7248 15.54C12.6875 15.4107 13.4475 15.14 14.0442 14.544C14.6408 13.9473 14.9108 13.1873 15.0402 12.224C15.1668 11.2833 15.1668 10.0773 15.1668 8.53799V8.46199C15.1668 6.92266 15.1668 5.71666 15.0402 4.77533C14.9108 3.81266 14.6402 3.05266 14.0442 2.45599C13.4475 1.85933 12.6875 1.58933 11.7242 1.45999C10.7835 1.33333 9.5775 1.33333 8.03816 1.33333H7.96216ZM2.6635 3.16333C3.0435 2.78333 3.55683 2.56533 4.4095 2.45066C5.27616 2.33466 6.41483 2.33333 8.00016 2.33333C9.5855 2.33333 10.7242 2.33466 11.5908 2.45066C12.4435 2.56533 12.9575 2.78399 13.3375 3.16333C13.7168 3.54333 13.9348 4.05666 14.0495 4.90933C14.1655 5.77599 14.1668 6.91466 14.1668 8.49999C14.1668 10.0853 14.1655 11.224 14.0495 12.0907C13.9348 12.9433 13.7162 13.4573 13.3368 13.8373C12.9568 14.2167 12.4435 14.4347 11.5908 14.5493C10.7242 14.6653 9.5855 14.6667 8.00016 14.6667C6.41483 14.6667 5.27616 14.6653 4.4095 14.5493C3.55683 14.4347 3.04283 14.216 2.66283 13.8367C2.2835 13.4567 2.0655 12.9433 1.95083 12.0907C1.83483 11.224 1.8335 10.0853 1.8335 8.49999C1.8335 6.91466 1.83483 5.77599 1.95083 4.90933C2.0655 4.05666 2.28416 3.54333 2.6635 3.16333Z" fill="#F8F9FC"/>
</svg>
