<svg width="24" height="25" viewBox="0 0 24 25" fill="none" xmlns="http://www.w3.org/2000/svg">
<path d="M11.3679 0.720215C9.336 0.748215 4.97055 1.06422 2.5316 3.18726C0.72004 4.9073 0.0810402 7.42035 0.0146095 10.5374C-0.0518212 13.6535 -0.138287 19.4966 5.80041 21.0806H5.80357L5.79935 23.4967C5.79935 23.4967 5.76034 24.4737 6.44257 24.6737C7.26188 24.9157 7.74377 24.1737 8.53039 23.3717C8.95956 22.9317 9.55532 22.2876 10.0035 21.7916C14.0631 22.1176 17.1864 21.3756 17.5428 21.2666C18.3611 21.0146 23.0007 20.4506 23.7557 14.6095C24.536 8.58937 23.3761 4.7793 21.2883 3.06326C20.6598 2.51325 18.1186 0.763216 12.4572 0.740215C12.4572 0.740215 12.0407 0.715215 11.3637 0.723215L11.3679 0.720215ZM11.4291 2.41325C12.0038 2.40925 12.357 2.43025 12.357 2.43025C17.1464 2.45025 19.4398 3.81828 19.9723 4.27629C21.7385 5.71131 22.6401 9.14438 21.9821 14.1735V14.1755C21.3452 19.0536 17.5808 19.3596 16.887 19.5706C16.5917 19.6606 13.848 20.3076 10.3989 20.0946C10.3989 20.0946 7.83024 23.0347 7.02779 23.7987C6.90126 23.9187 6.75364 23.9657 6.65663 23.9427C6.51955 23.9097 6.48159 23.7547 6.48264 23.5287L6.50373 19.5106C1.48241 18.1906 1.7745 13.2185 1.83249 10.6154C1.88943 8.01136 2.40506 5.87732 3.93719 4.44229C6.00392 2.66925 9.70928 2.42425 11.4344 2.41225L11.4291 2.41325ZM11.8298 5.0153C11.748 5.01921 11.671 5.05263 11.6144 5.10872C11.5578 5.1648 11.5259 5.23929 11.5254 5.31692C11.5248 5.39455 11.5556 5.46943 11.6115 5.52621C11.6673 5.583 11.7439 5.61738 11.8256 5.62231C13.538 5.63231 14.932 6.15932 16.0729 7.21434C17.2043 8.26037 17.7811 9.68239 17.7948 11.5484C17.797 11.7154 17.9425 11.8484 18.1186 11.8484C18.2028 11.8474 18.2833 11.8149 18.3425 11.758C18.4017 11.7011 18.4349 11.6244 18.4349 11.5444C18.4201 9.56039 17.7832 7.94836 16.52 6.78034C15.2652 5.62031 13.6804 5.0273 11.8298 5.0153ZM7.65414 5.71031C7.42996 5.68088 7.20179 5.72198 7.0046 5.82732L6.99405 5.82932C6.54064 6.07632 6.13362 6.39133 5.78565 6.76133C5.78354 6.76534 5.77932 6.76534 5.77721 6.76934C5.49567 7.09234 5.33434 7.40735 5.29216 7.71735C5.2839 7.76358 5.28142 7.81058 5.28478 7.85736C5.28478 7.99336 5.30798 8.12736 5.35332 8.25737L5.36703 8.26736C5.50938 8.74737 5.86578 9.54339 6.63765 10.8714C7.08052 11.6394 7.58982 12.3714 8.16239 13.0575C8.44709 13.4015 8.75288 13.7305 9.07976 14.0415L9.21895 14.1735C9.54584 14.4815 9.8938 14.7735 10.2565 15.0435C10.9805 15.5866 11.7516 16.0707 12.5616 16.4905C13.9619 17.2235 14.8034 17.5606 15.3074 17.6966L15.3179 17.7106C15.5014 17.7674 15.6956 17.7862 15.8873 17.7656C16.2142 17.7296 16.5485 17.5756 16.887 17.3055C16.8912 17.3055 16.8901 17.3035 16.8954 17.3005C17.2855 16.9705 17.6156 16.5805 17.876 16.1525L17.8792 16.1425C18.1165 15.7105 18.0374 15.3005 17.6894 15.0225C17.6852 15.0225 16.9534 14.4425 16.5959 14.1925C16.2163 13.9375 15.8262 13.7005 15.4223 13.4825C14.8845 13.1975 14.3341 13.3765 14.1064 13.6565L13.635 14.2205C13.3925 14.5035 12.9422 14.4665 12.9422 14.4665C9.65233 13.6705 8.77186 10.5114 8.77186 10.5114C8.77186 10.5114 8.73285 10.0854 9.03337 9.8554L9.62703 9.40739C9.91911 9.19238 10.1079 8.67037 9.80628 8.15936C9.57726 7.77564 9.32737 7.40347 9.05762 7.04434C8.77444 6.69291 8.48263 6.34781 8.18242 6.00932C8.05019 5.85228 7.86188 5.74662 7.65309 5.71231L7.65414 5.71031ZM12.3886 6.59033C12.3039 6.58794 12.2216 6.61758 12.1599 6.67272C12.0982 6.72785 12.0622 6.80398 12.0597 6.88434C12.0571 6.9647 12.0884 7.04272 12.1465 7.10123C12.2047 7.15974 12.2849 7.19396 12.3697 7.19634C13.5928 7.28135 14.4965 7.66235 15.1587 8.34637C15.823 9.03438 16.1393 9.8704 16.114 10.9164C16.1186 10.9933 16.1537 11.0658 16.2121 11.1192C16.2705 11.1727 16.3481 11.2034 16.4293 11.205C16.5105 11.2067 16.5894 11.1792 16.6502 11.1281C16.711 11.077 16.7492 11.0061 16.7573 10.9294C16.7836 9.75439 16.4051 8.73637 15.6322 7.93536C14.8519 7.12534 13.7584 6.68233 12.4161 6.58933H12.3908L12.3886 6.59033ZM12.8769 8.22036C12.7957 8.22149 12.7179 8.25171 12.6593 8.30494C12.6006 8.35818 12.5653 8.43049 12.5605 8.50737C12.5521 8.67437 12.6871 8.81738 12.8642 8.82738C13.4157 8.85538 13.7869 9.00238 14.0378 9.24938C14.2909 9.49439 14.4469 9.8694 14.4765 10.4134C14.4873 10.4888 14.5276 10.5576 14.5893 10.6062C14.6511 10.6548 14.7298 10.6797 14.81 10.6759C14.8901 10.6721 14.9658 10.64 15.0222 10.5858C15.0786 10.5317 15.1115 10.4595 15.1144 10.3834C15.0828 9.73939 14.8877 9.20538 14.5028 8.82638C14.1158 8.44837 13.5612 8.25236 12.9001 8.21936H12.8811L12.8769 8.22036Z" fill="white"/>
</svg>
