<?xml version="1.0" standalone="no"?>
<!DOCTYPE svg PUBLIC "-//W3C//DTD SVG 20010904//EN"
 "http://www.w3.org/TR/2001/REC-SVG-20010904/DTD/svg10.dtd">
<svg version="1.0" xmlns="http://www.w3.org/2000/svg"
 width="944.000000pt" height="944.000000pt" viewBox="0 0 944.000000 944.000000"
 preserveAspectRatio="xMidYMid meet">
<metadata>
Created by potrace 1.14, written by Peter Selinger 2001-2017
</metadata>
<g transform="translate(0.000000,944.000000) scale(0.100000,-0.100000)"
fill="#000000" stroke="none">
<path d="M4488 9275 c-1 -1 -50 -6 -108 -9 -58 -4 -123 -9 -145 -12 -22 -2
-58 -6 -80 -9 -22 -2 -40 -4 -40 -5 0 -1 -15 -3 -34 -5 -19 -2 -53 -7 -75 -10
-23 -4 -52 -8 -66 -10 -14 -2 -34 -6 -45 -8 -11 -3 -40 -8 -65 -13 -25 -4 -47
-8 -50 -9 -3 -1 -18 -4 -35 -8 -44 -11 -76 -18 -110 -24 -16 -3 -38 -9 -47
-14 -10 -5 -18 -8 -18 -5 0 3 -23 -2 -52 -10 -28 -9 -59 -17 -67 -19 -9 -2
-54 -16 -101 -31 -47 -15 -87 -28 -90 -29 -3 0 -36 -12 -75 -25 -38 -13 -73
-23 -77 -22 -5 1 -8 -3 -8 -8 0 -6 -6 -10 -14 -10 -7 0 -35 -9 -62 -21 -27
-11 -58 -24 -69 -29 -25 -10 -58 -23 -65 -24 -18 -4 -335 -165 -416 -212 -104
-60 -315 -192 -324 -203 -3 -3 -34 -26 -70 -50 -65 -45 -302 -232 -395 -313
-66 -57 -394 -385 -423 -423 -13 -16 -40 -47 -59 -68 -44 -48 -141 -169 -210
-262 -28 -38 -57 -75 -62 -82 -6 -7 -11 -17 -11 -23 0 -5 -3 -10 -8 -10 -4 0
-16 -16 -26 -35 -11 -19 -23 -35 -28 -35 -5 0 -7 -4 -4 -9 4 -5 3 -11 -2 -13
-8 -3 -111 -166 -164 -258 -115 -200 -288 -594 -330 -750 -5 -19 -13 -44 -18
-55 -11 -25 -67 -229 -75 -275 -3 -18 -8 -36 -10 -40 -2 -4 -7 -22 -10 -41 -3
-19 -10 -53 -16 -77 -5 -23 -12 -59 -15 -78 -3 -20 -7 -44 -9 -53 -5 -31 -15
-96 -19 -131 -3 -19 -7 -55 -11 -80 -34 -251 -40 -805 -11 -1050 6 -45 16
-140 22 -199 6 -62 12 -106 14 -106 1 0 4 -12 6 -28 1 -15 6 -42 9 -60 11 -60
14 -72 19 -107 2 -19 7 -42 10 -50 3 -8 8 -31 11 -50 4 -31 14 -71 30 -132 3
-10 7 -27 9 -37 19 -85 107 -368 127 -406 5 -12 11 -27 13 -35 2 -8 7 -24 11
-35 30 -76 60 -146 78 -185 12 -25 21 -47 22 -50 4 -21 161 -319 195 -370 5
-8 19 -31 30 -50 27 -47 44 -74 50 -80 3 -3 28 -39 55 -80 47 -70 127 -181
150 -207 5 -6 21 -26 35 -44 14 -18 39 -49 55 -68 17 -20 39 -47 50 -60 11
-13 41 -46 66 -72 26 -27 45 -49 44 -49 -5 0 186 -189 261 -259 70 -65 272
-235 334 -281 18 -14 45 -35 59 -46 30 -25 98 -73 156 -111 22 -14 42 -30 43
-34 2 -5 10 -9 17 -9 8 0 20 -6 27 -13 13 -13 82 -59 123 -83 11 -6 65 -38
120 -71 117 -70 301 -164 435 -223 95 -42 141 -62 150 -65 13 -4 47 -18 65
-25 38 -16 190 -69 260 -90 39 -12 81 -26 95 -31 14 -5 35 -11 48 -14 44 -10
58 -13 102 -25 25 -7 53 -14 63 -16 10 -2 28 -6 40 -10 12 -4 33 -8 47 -10 14
-1 36 -5 50 -9 14 -3 36 -8 50 -10 14 -2 63 -11 110 -19 47 -8 109 -17 139
-20 29 -4 56 -8 60 -10 3 -2 44 -7 91 -10 47 -3 123 -9 170 -12 162 -13 663
-6 747 11 11 2 55 6 98 10 43 3 81 8 84 9 5 3 69 12 151 21 14 2 25 4 25 5 0
2 24 7 72 14 67 9 244 48 301 65 17 5 32 7 32 4 0 -3 7 0 15 7 8 7 15 10 15 7
0 -3 12 -2 28 3 15 4 68 20 117 34 50 15 99 31 110 36 11 5 31 12 45 15 77 21
288 108 460 188 47 22 88 40 93 39 4 -1 7 2 7 8 0 5 5 10 11 10 26 0 463 259
509 302 10 9 20 14 24 11 3 -3 8 2 12 11 3 9 10 16 15 16 6 0 15 5 22 10 7 6
37 29 67 51 30 22 64 48 75 57 11 9 40 33 65 51 25 19 52 42 61 50 8 9 32 30
53 46 123 97 399 372 541 539 28 32 55 63 61 70 8 8 147 192 222 291 31 42
122 187 122 194 0 6 7 14 16 19 9 5 15 11 13 13 -1 2 4 15 13 29 83 133 296
573 323 670 3 8 28 83 56 165 28 83 52 157 54 165 2 8 8 35 15 60 7 25 13 52
15 60 2 8 10 42 18 75 9 33 18 71 21 85 3 14 7 34 9 45 17 79 24 120 31 175 3
19 7 46 10 60 3 14 7 45 10 70 3 25 7 65 11 90 12 95 22 240 29 420 l3 75
-1473 -2 -1473 -1 -34 66 c-18 37 -49 96 -67 132 -19 36 -34 67 -35 70 -1 3
-25 52 -55 110 -30 58 -57 112 -60 120 -3 8 -28 60 -56 115 -29 55 -52 104
-52 109 0 5 -4 12 -9 15 -7 5 -45 77 -48 91 0 3 -12 25 -25 50 -29 54 -83 163
-85 170 0 3 -7 16 -14 29 -42 75 -79 151 -74 151 3 0 1 6 -5 13 -6 7 -174 337
-373 732 -199 396 -395 788 -437 870 -42 83 -76 152 -77 155 -3 15 -120 240
-125 240 -7 0 -125 -233 -122 -242 1 -5 -2 -8 -6 -8 -4 0 -16 -20 -26 -45 -11
-25 -23 -45 -28 -45 -4 0 -8 -8 -8 -18 0 -10 -4 -22 -9 -28 -5 -5 -66 -124
-137 -264 -71 -140 -131 -257 -134 -260 -3 -3 -39 -72 -80 -155 -41 -82 -79
-153 -83 -156 -5 -3 -8 -9 -8 -13 1 -7 -41 -92 -129 -261 -89 -171 -150 -294
-149 -301 0 -4 -3 -10 -8 -13 -5 -3 -27 -42 -48 -86 -21 -44 -53 -105 -69
-135 -17 -30 -31 -61 -33 -69 -1 -8 -5 -17 -10 -20 -4 -3 -44 -78 -89 -166
-101 -200 -302 -592 -404 -790 -43 -82 -112 -217 -154 -300 -42 -82 -128 -249
-190 -370 -62 -121 -152 -299 -202 -395 -49 -96 -92 -177 -96 -178 -5 -2 -8
-9 -8 -15 0 -7 -7 -25 -16 -42 -9 -16 -53 -102 -97 -190 -45 -88 -85 -163 -90
-166 -5 -3 -8 -8 -7 -10 3 -4 -82 -181 -90 -189 -3 -3 -54 -102 -114 -220 -60
-118 -114 -221 -120 -228 -10 -10 -26 6 -78 75 -36 49 -93 131 -127 183 -33
52 -64 100 -68 106 -37 51 -149 278 -205 414 -59 145 -70 172 -73 180 -8 31
-59 191 -66 208 -5 13 -9 33 -9 46 0 12 -3 26 -7 30 -4 3 -8 12 -9 19 -1 7 -5
23 -8 37 -13 58 -28 126 -31 145 -2 11 -6 34 -9 50 -13 68 -16 85 -31 199 -24
189 -29 276 -29 541 0 215 7 390 18 453 2 9 7 44 10 77 4 33 10 74 12 90 17
96 35 196 43 235 20 89 25 108 51 195 11 39 23 81 26 94 3 14 8 29 12 35 3 6
7 16 8 21 2 11 41 120 54 150 5 11 21 49 37 85 15 36 28 67 28 70 1 8 90 181
113 220 11 19 33 58 48 85 14 28 30 52 33 55 4 3 22 29 40 59 18 30 39 61 47
68 8 8 14 20 14 28 0 7 3 15 8 17 11 5 82 95 82 105 0 5 8 16 18 24 9 9 46 52
82 95 151 184 352 381 560 549 25 20 52 42 61 49 9 7 45 33 80 57 35 24 66 46
69 49 10 11 166 107 255 157 98 56 258 133 274 133 6 0 11 5 11 10 0 6 3 9 8
8 4 -2 43 12 87 29 130 52 140 56 150 58 6 0 17 4 25 7 23 10 119 39 138 43 9
2 18 4 20 5 1 2 5 3 10 5 33 9 61 16 82 19 14 3 51 12 83 21 32 9 62 13 67 10
6 -3 10 -2 10 2 0 5 15 10 33 12 40 4 72 9 72 11 0 4 78 15 180 26 28 3 61 7
75 10 37 6 261 17 375 17 114 1 378 -11 397 -18 12 -4 100 -14 178 -21 19 -1
37 -4 40 -5 3 -1 14 -3 25 -4 11 -1 27 -4 35 -8 17 -6 92 -21 101 -19 3 0 57
-13 120 -29 63 -16 123 -32 133 -34 21 -5 171 -53 196 -62 8 -4 17 -7 20 -8
26 -9 48 -18 62 -26 10 -5 22 -9 28 -9 5 0 37 -13 70 -29 33 -16 60 -28 60
-26 0 4 226 -110 280 -142 85 -49 145 -88 148 -95 2 -4 8 -8 14 -8 11 0 100
-59 110 -74 5 -7 8 -7 8 -1 0 6 3 6 8 0 4 -6 27 -26 52 -45 25 -19 51 -39 58
-45 7 -5 23 -19 36 -31 12 -12 27 -23 33 -25 47 -18 383 -352 511 -509 29 -36
61 -74 70 -85 9 -11 32 -42 51 -70 19 -27 38 -51 43 -53 4 -2 8 -10 8 -18 0
-8 4 -14 8 -14 5 0 15 -12 23 -27 8 -16 17 -30 20 -33 11 -9 109 -171 109
-180 0 -5 3 -10 8 -12 4 -1 30 -47 57 -100 50 -98 66 -113 84 -80 5 9 12 16
16 14 3 -2 18 6 33 18 36 28 214 160 397 295 379 279 357 261 340 278 -8 9
-15 20 -15 26 0 6 -4 11 -10 11 -5 0 -10 5 -10 11 0 11 -19 43 -109 179 -88
134 -301 412 -354 460 -11 11 -18 20 -15 20 3 0 -20 27 -52 60 -32 33 -56 60
-55 60 8 0 -249 253 -335 330 -52 46 -100 89 -106 95 -6 5 -29 24 -50 40 -21
17 -52 42 -69 56 -16 14 -57 45 -90 70 -33 24 -64 48 -70 52 -35 28 -175 122
-260 175 -55 34 -105 65 -110 69 -57 42 -442 230 -572 279 -37 14 -72 28 -78
32 -5 4 -14 7 -20 9 -15 3 -197 64 -220 73 -11 5 -72 22 -136 39 -113 31 -138
37 -189 47 -14 3 -33 7 -42 10 -10 3 -28 7 -40 9 -13 2 -36 7 -53 10 -16 3
-43 8 -60 11 -16 2 -41 7 -55 10 -14 3 -43 8 -65 11 -63 7 -90 11 -90 13 0 1
-13 3 -30 4 -16 2 -61 6 -100 11 -38 4 -90 9 -115 11 -53 6 -637 14 -642 9z
m257 -3512 c10 -21 20 -42 21 -48 1 -5 27 -57 57 -115 93 -177 207 -409 207
-419 0 -5 3 -11 8 -13 8 -3 112 -213 112 -227 0 -5 4 -11 8 -13 6 -2 88 -160
130 -249 1 -4 -256 -6 -573 -7 -316 0 -575 2 -575 4 0 12 164 329 172 332 4 2
8 8 8 13 0 11 56 125 164 334 40 77 101 196 137 265 35 69 63 128 62 132 -2 5
1 8 6 8 5 0 11 9 14 20 8 30 21 24 42 -17z m1024 -2013 c19 0 31 -3 28 -7 -4
-3 -3 -11 2 -17 17 -20 469 -926 462 -926 -3 0 -1 -4 5 -8 6 -4 91 -169 190
-367 98 -198 182 -361 187 -363 4 -2 7 -8 7 -14 0 -6 25 -60 56 -121 l56 -111
-38 -33 c-22 -18 -45 -33 -51 -33 -7 0 -13 -4 -13 -8 0 -5 -12 -15 -27 -23
-16 -7 -39 -21 -53 -30 -53 -36 -115 -72 -119 -70 -2 2 -7 -1 -10 -6 -3 -5
-44 -29 -91 -53 -47 -24 -92 -47 -100 -51 -43 -24 -194 -89 -204 -89 -7 0 -16
-4 -21 -9 -19 -17 -403 -141 -455 -146 -14 -2 -25 -4 -25 -5 0 -1 -7 -3 -15
-5 -8 -2 -28 -6 -45 -10 -47 -10 -176 -34 -215 -39 -19 -2 -51 -7 -70 -10
-136 -21 -285 -30 -510 -29 -172 0 -385 8 -385 14 0 1 -13 2 -30 4 -65 6 -125
15 -230 35 -27 5 -62 12 -77 14 -15 3 -32 7 -37 10 -5 3 -26 8 -47 11 -44 7
-130 30 -186 51 -21 8 -38 11 -38 8 0 -4 -6 -2 -12 3 -7 6 -26 14 -43 18 -44
12 -45 12 -50 15 -3 1 -8 3 -12 5 -5 1 -21 7 -38 14 -16 6 -43 17 -60 23 -38
14 -105 43 -175 76 -30 14 -61 27 -68 28 -8 1 -21 9 -30 16 -10 8 -30 20 -47
27 -47 20 -240 133 -243 142 -2 5 -8 9 -13 9 -11 0 -155 95 -183 121 -18 17
-18 20 21 96 65 126 263 512 302 588 19 39 40 73 46 77 5 4 7 8 2 8 -4 0 15
42 42 93 27 50 106 205 176 342 70 138 138 269 151 293 13 23 20 42 16 42 -4
0 -2 4 3 8 6 4 33 52 60 107 28 55 55 103 60 107 6 4 6 8 1 8 -5 0 -3 7 4 15
6 8 27 45 45 84 29 59 38 70 62 73 21 2 1898 1 2082 -2z m2289 1 c48 -1 53 -3
47 -20 -3 -11 -8 -28 -10 -40 -2 -11 -9 -29 -15 -40 -6 -12 -9 -21 -6 -21 4 0
-51 -163 -71 -210 -3 -8 -7 -21 -9 -29 -2 -13 -15 -42 -45 -103 -5 -10 -9 -25
-9 -33 0 -8 -5 -15 -12 -15 -6 0 -9 -3 -6 -6 9 -8 -146 -309 -193 -376 -11
-14 -19 -28 -19 -31 0 -6 -65 -107 -83 -127 -6 -8 -24 -32 -38 -55 -22 -34
-101 -138 -140 -183 -6 -8 -15 -10 -19 -5 -14 14 -178 343 -171 343 3 0 1 4
-5 8 -6 4 -73 133 -150 287 -76 154 -143 283 -147 286 -5 3 -8 9 -8 13 1 3
-37 83 -84 176 -47 94 -85 173 -85 175 0 8 736 11 1278 6z"/>
<path d="M4694 3171 c-37 -46 -94 -131 -94 -139 0 -5 -8 -17 -18 -28 -10 -10
-19 -22 -20 -27 0 -4 -15 -35 -31 -70 -39 -82 -81 -195 -83 -224 -2 -13 -5
-23 -8 -23 -3 0 -6 -10 -7 -21 -3 -33 -12 -35 -38 -9 -13 14 -30 30 -37 35 -7
6 -33 26 -58 45 -115 91 -271 176 -410 225 -39 14 -40 13 -41 -8 -1 -12 -3
-42 -6 -67 -5 -66 0 -188 12 -265 12 -74 11 -80 -10 -78 -32 3 -98 13 -125 19
-41 8 -249 17 -265 11 -24 -10 7 -104 89 -272 27 -55 53 -101 58 -103 4 -2 8
-9 8 -15 0 -7 20 -38 45 -69 25 -32 45 -60 45 -63 0 -3 8 -13 18 -23 9 -10 31
-34 47 -53 25 -28 122 -113 180 -157 53 -41 243 -134 300 -147 6 -2 35 -10 66
-19 31 -9 66 -19 78 -21 13 -2 30 -6 39 -9 93 -27 454 -29 577 -2 137 30 233
61 340 111 44 21 82 41 83 46 2 5 9 9 14 9 6 0 35 18 64 40 29 22 58 40 64 40
6 0 8 5 5 10 -3 5 -2 10 3 10 6 0 36 28 68 61 87 91 94 98 94 105 0 4 8 14 18
23 18 16 102 145 102 157 0 3 8 18 18 32 10 15 31 56 46 92 15 36 32 74 37 85
17 38 38 118 33 127 -4 5 -54 8 -113 7 -93 -3 -150 -9 -289 -34 -19 -4 -32 -3
-29 2 5 9 17 70 22 118 7 55 6 281 0 297 -7 17 -15 15 -100 -22 -38 -16 -60
-23 -67 -22 -5 1 -8 -2 -8 -8 0 -5 -5 -10 -12 -10 -33 0 -252 -144 -331 -217
-52 -48 -64 -56 -64 -40 0 34 -61 205 -105 297 -43 90 -157 273 -177 284 -3 2
-15 -8 -27 -23z m100 -285 c62 -128 89 -201 111 -304 14 -71 11 -103 -15 -122
-5 -4 -27 -38 -67 -105 -7 -11 -15 -27 -19 -35 -37 -81 -54 -123 -65 -161 -18
-64 -25 -66 -39 -12 -25 92 -123 284 -172 337 -10 11 -16 27 -13 35 2 9 7 32
10 51 5 28 17 78 30 120 1 3 7 19 14 35 7 17 14 35 15 40 1 6 8 21 16 35 7 14
13 26 12 27 -2 5 44 98 72 146 23 38 31 45 42 36 8 -6 38 -62 68 -123z m-674
-177 c14 -8 29 -20 33 -26 4 -7 14 -13 21 -13 7 0 21 -8 32 -17 10 -10 35 -30
54 -44 50 -37 190 -180 190 -193 0 -2 16 -28 36 -57 32 -47 94 -168 94 -182 0
-3 5 -18 12 -34 13 -32 11 -27 32 -115 9 -37 19 -74 22 -82 10 -27 -12 -17
-27 12 -27 53 -148 208 -207 263 -98 93 -219 172 -337 220 -16 7 -32 13 -35
15 -3 1 -15 5 -27 9 -30 10 -39 36 -47 141 -2 17 -5 35 -8 40 -2 5 -5 42 -7
82 l-2 73 73 -39 c40 -21 84 -45 98 -53z m1365 34 c-2 -27 -4 -48 -5 -48 0 0
-3 -25 -5 -55 -2 -30 -8 -79 -14 -109 -6 -29 -11 -55 -11 -56 0 -1 -25 -10
-55 -20 -30 -11 -55 -23 -55 -27 0 -4 -5 -8 -11 -8 -17 0 -139 -63 -139 -72 0
-4 -5 -8 -11 -8 -28 0 -198 -155 -262 -240 -23 -30 -48 -61 -54 -68 -7 -7 -13
-17 -13 -22 0 -5 -6 -15 -12 -22 -7 -7 -19 -25 -27 -40 -8 -16 -16 -26 -19
-23 -6 5 38 196 48 210 4 6 13 28 20 50 30 96 125 241 220 334 87 86 109 104
190 156 41 26 87 56 102 67 15 10 34 18 43 18 8 0 15 4 15 9 0 9 20 17 47 20
8 1 11 -14 8 -46z m-1799 -309 c32 -3 62 -8 65 -9 3 -2 28 -7 55 -11 27 -3 54
-11 61 -16 7 -5 16 -7 21 -4 5 3 21 -2 36 -10 16 -7 34 -14 42 -14 8 0 41 -13
73 -29 33 -16 62 -26 65 -23 4 3 6 0 6 -6 0 -7 5 -12 11 -12 28 0 164 -103
247 -187 50 -52 92 -99 92 -103 0 -5 6 -15 13 -22 7 -7 24 -31 37 -53 13 -22
26 -42 29 -45 9 -7 88 -171 95 -196 6 -19 3 -21 -21 -17 -16 2 -53 6 -83 8
-60 6 -252 54 -315 80 -183 76 -303 164 -425 315 -71 87 -90 117 -153 240 -52
102 -56 115 -40 121 10 4 21 5 24 3 3 -2 33 -6 65 -10z m2164 -2 c0 -35 -156
-309 -182 -320 -5 -2 -8 -9 -8 -16 0 -7 -10 -21 -22 -33 -13 -11 -37 -35 -54
-54 -44 -48 -113 -109 -124 -109 -4 0 -10 -3 -12 -8 -3 -7 -108 -77 -118 -77
-3 -1 -20 -9 -39 -19 -32 -17 -127 -53 -161 -61 -8 -2 -42 -11 -75 -19 -65
-18 -92 -23 -150 -31 -21 -2 -40 -7 -43 -9 -2 -3 -13 -1 -23 4 -11 6 -19 6
-21 0 -2 -5 -8 -6 -15 -2 -22 14 112 259 201 367 72 87 228 225 255 225 5 0
16 6 23 13 28 27 226 107 303 122 11 2 20 4 20 5 0 3 84 16 160 26 28 3 51 7
53 8 8 9 32 0 32 -12z"/>
</g>
</svg>
